<svg width="443" height="312" viewBox="0 0 443 312" fill="none" xmlns="http://www.w3.org/2000/svg">
<path d="M442.662 289.855H0V290.077H442.662V289.855Z" fill="#E6E6E6"/>
<path d="M110.506 303.25H81.1842V303.471H110.506V303.25Z" fill="#E6E6E6"/>
<path d="M71.9061 303.25H54.9167V303.471H71.9061V303.25Z" fill="#E6E6E6"/>
<path d="M186.405 306.508H169.416V306.73H186.405V306.508Z" fill="#E6E6E6"/>
<path d="M274.991 311.448H236.753V311.67H274.991V311.448Z" fill="#E6E6E6"/>
<path d="M228.874 311.448H223.27V311.67H228.874V311.448Z" fill="#E6E6E6"/>
<path d="M401.362 306.508H318.425V306.73H401.362V306.508Z" fill="#E6E6E6"/>
<path d="M209.822 250.37H38.8746C37.5354 250.367 36.2519 249.834 35.3058 248.886C34.3596 247.938 33.8282 246.654 33.8282 245.315V5.01094C33.8399 3.67943 34.3764 2.40629 35.3213 1.46806C36.2662 0.52983 37.543 0.00228094 38.8746 0H209.822C211.163 0 212.448 0.5326 213.396 1.48063C214.344 2.42867 214.877 3.71448 214.877 5.0552V245.315C214.877 246.655 214.344 247.941 213.396 248.889C212.448 249.837 211.163 250.37 209.822 250.37ZM38.8746 0.177066C37.5941 0.179411 36.3669 0.689725 35.4623 1.596C34.5576 2.50227 34.0496 3.73045 34.0496 5.01094V245.315C34.0496 246.595 34.5576 247.823 35.4623 248.729C36.3669 249.636 37.5941 250.146 38.8746 250.148H209.822C211.103 250.146 212.331 249.636 213.237 248.73C214.143 247.824 214.653 246.596 214.656 245.315V5.01094C214.653 3.72963 214.143 2.50148 213.237 1.59546C212.331 0.689438 211.103 0.179406 209.822 0.177066H38.8746Z" fill="#E6E6E6"/>
<path d="M401.326 250.37H230.37C229.03 250.367 227.746 249.834 226.798 248.887C225.851 247.939 225.317 246.655 225.315 245.315V5.01094C225.329 3.67862 225.868 2.40549 226.814 1.46751C227.76 0.52952 229.038 0.00225606 230.37 0H401.326C402.656 0.00460767 403.931 0.533186 404.874 1.47117C405.817 2.40915 406.352 3.68096 406.364 5.01094V245.315C406.364 246.652 405.834 247.935 404.89 248.883C403.945 249.83 402.664 250.365 401.326 250.37ZM230.37 0.177066C229.089 0.179406 227.861 0.689438 226.955 1.59546C226.049 2.50148 225.539 3.72963 225.536 5.01094V245.315C225.539 246.596 226.049 247.824 226.955 248.73C227.861 249.636 229.089 250.146 230.37 250.148H401.326C402.608 250.146 403.836 249.636 404.742 248.73C405.648 247.824 406.158 246.596 406.16 245.315V5.01094C406.158 3.72963 405.648 2.50148 404.742 1.59546C403.836 0.689438 402.608 0.179406 401.326 0.177066H230.37Z" fill="#E6E6E6"/>
<path d="M236.736 214.231H217.267V291.458H236.736V214.231Z" fill="#E0E0E0"/>
<path d="M233.035 291.458H236.736V280.94H229.157L233.035 291.458Z" fill="#FAFAFA"/>
<path d="M151.426 214.231H131.958V291.458H151.426V214.231Z" fill="#E0E0E0"/>
<path d="M236.736 214.231H148.203V285.004H236.736V214.231Z" fill="#FAFAFA"/>
<path d="M233.522 217.71V236.435H151.39V217.71H233.495M233.841 217.365H151.072V236.771H233.867V217.365H233.841Z" fill="#E0E0E0"/>
<path d="M151.895 291.458H148.203V280.94H155.773L151.895 291.458Z" fill="#FAFAFA"/>
<path d="M190.513 227.068C190.513 227.455 190.628 227.833 190.843 228.155C191.058 228.477 191.363 228.728 191.721 228.876C192.078 229.024 192.472 229.062 192.851 228.987C193.231 228.911 193.579 228.725 193.853 228.452C194.127 228.178 194.313 227.829 194.388 227.45C194.464 227.07 194.425 226.677 194.277 226.319C194.129 225.962 193.878 225.656 193.557 225.441C193.235 225.226 192.856 225.111 192.47 225.111C191.951 225.111 191.453 225.318 191.086 225.685C190.719 226.051 190.513 226.549 190.513 227.068Z" fill="#E6E6E6"/>
<path d="M233.522 240.25V258.975H151.39V240.25H233.495M233.841 239.914H151.072V259.32H233.867V239.923L233.841 239.914Z" fill="#E0E0E0"/>
<path d="M190.513 249.662C190.513 250.048 190.628 250.427 190.843 250.749C191.058 251.07 191.363 251.321 191.721 251.469C192.078 251.617 192.472 251.656 192.851 251.58C193.231 251.505 193.579 251.319 193.853 251.045C194.127 250.771 194.313 250.423 194.388 250.043C194.464 249.664 194.425 249.27 194.277 248.913C194.129 248.555 193.878 248.25 193.557 248.035C193.235 247.82 192.856 247.705 192.47 247.705C191.951 247.705 191.453 247.911 191.086 248.278C190.719 248.645 190.513 249.143 190.513 249.662Z" fill="#E6E6E6"/>
<path d="M233.522 262.8V281.533H151.39V262.8H233.495M233.841 262.454H151.072V281.87H233.867V262.454H233.841Z" fill="#E0E0E0"/>
<path d="M190.513 272.166C190.515 272.553 190.631 272.93 190.847 273.251C191.063 273.572 191.369 273.821 191.727 273.968C192.085 274.114 192.478 274.152 192.857 274.075C193.236 273.999 193.583 273.812 193.856 273.538C194.129 273.264 194.314 272.915 194.389 272.536C194.464 272.157 194.425 271.764 194.276 271.407C194.128 271.05 193.877 270.745 193.556 270.53C193.234 270.316 192.856 270.201 192.47 270.201C192.212 270.201 191.957 270.252 191.719 270.351C191.481 270.45 191.265 270.595 191.083 270.777C190.901 270.96 190.757 271.177 190.659 271.415C190.562 271.653 190.512 271.909 190.513 272.166Z" fill="#E6E6E6"/>
<path d="M139.536 169.38H120.068V291.466H139.536V169.38Z" fill="#E0E0E0"/>
<path d="M135.835 291.458H139.536V280.94H131.966L135.835 291.458Z" fill="#FAFAFA"/>
<path d="M66.78 169.38H47.3117V291.466H66.78V169.38Z" fill="#E0E0E0"/>
<path d="M139.536 169.38H63.5486V285.012H139.536V169.38Z" fill="#FAFAFA"/>
<path d="M136.26 172.638V198.817H66.8243V172.638H136.26ZM136.668 172.24H66.3993V199.198H136.65V172.249L136.668 172.24Z" fill="#E0E0E0"/>
<path d="M136.26 202.013V271.449H103.185V202.013H136.26ZM136.668 201.606H102.786V271.857H136.668V201.606Z" fill="#E0E0E0"/>
<path d="M99.9 202.013V271.449H66.8243V202.013H99.9ZM100.298 201.606H66.3993V271.857H100.281V201.606H100.298Z" fill="#E0E0E0"/>
<path d="M67.2492 291.458H63.5486V280.94H71.127L67.2492 291.458Z" fill="#FAFAFA"/>
<path d="M99.5813 185.741C99.5795 186.13 99.6933 186.511 99.9082 186.835C100.123 187.16 100.429 187.413 100.788 187.563C101.147 187.713 101.543 187.753 101.925 187.679C102.307 187.604 102.658 187.417 102.933 187.143C103.209 186.868 103.397 186.518 103.474 186.137C103.55 185.755 103.512 185.359 103.363 185C103.215 184.64 102.963 184.333 102.64 184.116C102.316 183.9 101.936 183.784 101.547 183.784C101.027 183.784 100.528 183.99 100.16 184.357C99.7917 184.724 99.5836 185.221 99.5813 185.741Z" fill="#E6E6E6"/>
<path d="M106.593 235.08C106.593 235.469 106.709 235.85 106.925 236.173C107.141 236.496 107.449 236.748 107.808 236.897C108.168 237.045 108.564 237.084 108.945 237.007C109.327 236.931 109.677 236.743 109.951 236.467C110.226 236.191 110.412 235.84 110.487 235.458C110.562 235.076 110.522 234.681 110.372 234.322C110.222 233.963 109.968 233.657 109.644 233.442C109.32 233.227 108.939 233.113 108.55 233.115C108.292 233.115 108.037 233.166 107.799 233.265C107.561 233.363 107.345 233.508 107.163 233.691C106.981 233.874 106.837 234.09 106.739 234.329C106.642 234.567 106.592 234.823 106.593 235.08Z" fill="#E6E6E6"/>
<path d="M92.5784 235.08C92.5801 235.467 92.6964 235.844 92.9124 236.165C93.1285 236.485 93.4347 236.735 93.7923 236.881C94.15 237.028 94.5431 237.066 94.9221 236.989C95.301 236.913 95.6488 236.726 95.9216 236.452C96.1943 236.178 96.3798 235.829 96.4546 235.45C96.5293 235.07 96.4901 234.678 96.3417 234.321C96.1934 233.964 95.9426 233.658 95.621 233.444C95.2995 233.229 94.9215 233.115 94.535 233.115C94.2773 233.115 94.0221 233.166 93.7842 233.265C93.5462 233.363 93.3301 233.508 93.1483 233.691C92.9665 233.874 92.8226 234.09 92.7248 234.329C92.627 234.567 92.5772 234.822 92.5784 235.08Z" fill="#E6E6E6"/>
<path d="M90.3651 135.34H82.1581C82.9144 139.321 83.3907 143.35 83.5835 147.398C83.5835 151.824 77.3331 169.38 86.2395 169.38C95.1458 169.38 88.8954 151.869 88.8954 147.398C89.1028 143.349 89.5939 139.32 90.3651 135.34Z" fill="#E0E0E0"/>
<path d="M59.1397 153.294V158.606C59.149 161.454 60.2844 164.182 62.298 166.195C64.3115 168.209 67.0399 169.344 69.8875 169.354H75.1995C78.0471 169.344 80.7754 168.209 82.789 166.195C84.8026 164.182 85.938 161.454 85.9473 158.606V153.294H59.1397Z" fill="#F5F5F5"/>
<path d="M173.231 202.969C173.231 209.167 180.164 214.231 188.636 214.231H196.285C204.758 214.231 211.69 209.167 211.69 202.969H173.231Z" fill="#E0E0E0"/>
<path d="M375.918 193.886C371.278 197.675 364.869 204.607 359.008 214.364C355.095 220.862 352.74 227.643 351.704 236.656C351.704 226.475 351.766 215.541 351.801 205.218C352.979 202.562 355.67 196.436 357.6 191.602C364.037 175.462 366.453 171.487 372.235 157.57C379.964 138.978 387.878 116.969 385.612 118.731C380.99 122.316 363.284 155.472 361.372 160.217C356.159 172.881 352.937 186.275 351.819 199.924C351.819 190.185 351.89 181.332 351.925 174.462C352.049 152.054 352.43 144.821 352.616 142.59C353.333 141.457 354.174 140.138 354.67 139.43C358.831 133.41 360.433 128.292 364.346 119.315C369.906 106.611 374.687 84.0439 373.288 85.1771C367.463 89.9224 362.877 100.104 356.839 113.091C350.801 126.079 352.527 133.542 351.332 144.627C351.084 146.805 350.889 155.02 350.748 166.397C349.19 154.268 346.25 146.282 340.894 139.023C334.307 130.09 327.933 124.061 323.259 120.909C318.584 117.757 331.333 139.695 337.424 149.239C342.851 157.774 347.853 165.29 350.704 172.7C350.553 188.131 350.482 207.662 350.482 225.82C349.083 217.551 346.799 208.636 343.754 201.739C340.089 193.452 334.458 180.739 329.969 176.427C328.898 175.392 334.661 200.119 338.362 206.688C342.063 213.257 344.781 219.463 347.109 223.19C347.649 224.076 349.455 227.413 350.482 229.343C350.482 251.538 350.606 271.122 350.801 277.788H351.757C351.695 276.071 351.677 264.774 351.704 249.83C354.015 241.72 359.291 232.46 363.647 224.014C368.392 214.868 380.557 190.123 375.918 193.886Z" fill="#E0E0E0"/>
<path d="M365.143 291.458H337.397L335.299 264.26H367.241L365.143 291.458Z" fill="#F0F0F0"/>
<path d="M369.304 267.43H333.227L332.2 258.249H370.34L369.304 267.43Z" fill="#F5F5F5"/>
<path d="M110.01 18.1492H60.388V72.6409H110.01V18.1492Z" fill="#E0E0E0"/>
<path d="M115.384 18.1492H64.1241V72.6409H115.384V18.1492Z" fill="#F5F5F5"/>
<path d="M111.091 68.3471V22.443L68.4179 22.443V68.3471H111.091Z" fill="white"/>
<path d="M100.741 57.2096V33.5626H78.7585V57.2096H100.741Z" fill="#F5F5F5"/>
<path d="M363.027 24.4969H316.928V75.1198H363.027V24.4969Z" fill="#E0E0E0"/>
<path d="M368.02 24.4969H320.408V75.1198H368.02V24.4969Z" fill="#F5F5F5"/>
<path d="M364.037 71.127V28.4897L324.401 28.4897V71.127H364.037Z" fill="white"/>
<path d="M344.214 62.1763C351.045 62.1763 356.582 56.639 356.582 49.8084C356.582 42.9777 351.045 37.4404 344.214 37.4404C337.383 37.4404 331.846 42.9777 331.846 49.8084C331.846 56.639 337.383 62.1763 344.214 62.1763Z" fill="#F5F5F5"/>
<path d="M161.563 50.6406H124.751V91.0645H161.563V50.6406Z" fill="#E0E0E0"/>
<path d="M165.547 50.6406H127.522V91.0645H165.547V50.6406Z" fill="#F5F5F5"/>
<path d="M162.36 87.8773V53.8277H130.709V87.8773H162.36Z" fill="white"/>
<path d="M146.539 62.2383L137.88 77.2357H155.197L146.539 62.2383Z" fill="#F5F5F5"/>
</svg>
