<svg width="80" height="232" viewBox="0 0 80 232" fill="none" xmlns="http://www.w3.org/2000/svg">
<path d="M19.4552 48.3855C18.6141 50.2269 17.7288 52.2543 16.9585 54.2197C16.1883 56.1852 15.4004 58.2126 14.7187 60.2311C13.3268 64.2091 12.2667 68.2956 11.5492 72.4486L11.3545 73.75C11.3359 73.9733 11.3569 74.198 11.4164 74.414C11.6254 75.1477 11.9544 75.8418 12.3903 76.468C13.5272 78.0888 14.8461 79.574 16.3211 80.8946C17.8763 82.3411 19.5076 83.7035 21.2081 84.9759C22.9079 86.2862 24.6963 87.5611 26.4581 88.7651L24.8025 91.8726C20.5956 90.0396 16.6026 87.7506 12.8949 85.0468C10.9169 83.6042 9.13169 81.9142 7.58297 80.0181C6.66496 78.8894 5.9491 77.6105 5.46704 76.2378C5.18676 75.3803 5.04335 74.4839 5.04208 73.5818C5.04208 73.3693 5.04208 73.0595 5.04208 72.9089V72.4751L5.13062 71.5898C5.63817 66.9773 6.60804 62.4275 8.02563 58.0089C8.71618 55.831 9.451 53.662 10.2921 51.5461C11.1331 49.4301 12.0007 47.3585 13.072 45.2072L19.4552 48.3855Z" fill="#E58A7B"/>
<path d="M25.2098 88.2162L31.469 85.0468L29.8489 91.9169C29.8489 91.9169 25.5551 93.1209 23.5631 91.0315L25.2098 88.2162Z" fill="#E58A7B"/>
<path d="M37.1971 86.1711L35.5327 91.8549L29.8489 91.9169L31.469 85.0468L37.1971 86.1711Z" fill="#E58A7B"/>
<path d="M46.0326 15.239C46.3674 16.4659 46.8334 17.6532 47.4226 18.7803C47.2504 18.9754 47.0287 19.1205 46.7809 19.1999C46.5331 19.2794 46.2684 19.2904 46.0149 19.2318L46.0326 15.239Z" fill="#DF5753"/>
<path d="M45.8467 15.292C46.2134 15.292 46.5107 14.8362 46.5107 14.2739C46.5107 13.7116 46.2134 13.2558 45.8467 13.2558C45.48 13.2558 45.1827 13.7116 45.1827 14.2739C45.1827 14.8362 45.48 15.292 45.8467 15.292Z" fill="#263238"/>
<path d="M45.6519 13.2912L46.9976 12.9105C46.9976 12.9105 46.3425 13.9552 45.6519 13.2912Z" fill="#263238"/>
<path d="M28.7422 21.7372C29.5478 25.8539 30.3535 33.4058 27.4673 36.1591C27.4673 36.1591 28.6006 40.3379 36.2586 40.3379C44.678 40.3379 40.278 36.1591 40.278 36.1591C35.6831 35.0613 35.7982 31.6528 36.6039 28.4479L28.7422 21.7372Z" fill="#E58A7B"/>
<path d="M26.5023 12.3528C26.9273 19.2318 26.9627 22.1533 30.4332 25.6858C35.6655 30.9977 44.0229 28.9792 45.6608 22.1445C47.1393 15.9472 46.2008 5.74826 39.4635 3.01261C37.9846 2.40338 36.3748 2.18149 34.7862 2.36793C33.1977 2.55438 31.683 3.14299 30.3854 4.07809C29.0877 5.01319 28.0501 6.26386 27.3706 7.71181C26.6912 9.15976 26.3923 10.7571 26.5023 12.3528Z" fill="#E58A7B"/>
<path d="M27.184 4.61502C23.7313 5.87218 19.1276 4.93374 20.9337 15.5842C22.846 26.8632 19.9067 30.5727 19.9067 30.5727C19.9067 30.5727 33.0006 33.3615 46.369 30.4045C46.369 30.4045 42.2877 23.2688 43.4298 18.01C44.8905 11.3701 43.7396 8.9177 43.7396 8.9177C43.7396 8.9177 32.0356 2.84437 27.184 4.61502Z" fill="#263238"/>
<path d="M41.7919 15.9383C41.7955 17.2463 42.17 18.5265 42.872 19.6301C43.8104 21.0644 44.9171 20.5155 45.1915 18.9927C45.4394 17.6559 45.2535 15.292 44.0583 14.3713C42.8631 13.4506 41.8096 14.3536 41.7919 15.9383Z" fill="#E58A7B"/>
<path d="M24.1828 5.77481C23.1912 2.98603 27.9189 -1.30779 37.923 0.46286C47.9272 2.23351 48.361 10.5644 48.361 10.5644L46.3425 8.15633L46.431 10.6884L36.1524 12.6626L24.1828 5.77481Z" fill="#263238"/>
<path d="M25.0327 36.6284C24.9737 36.2241 25.0748 35.8128 25.3146 35.4821C25.5544 35.1513 25.9139 34.9273 26.3164 34.8577C29.4328 34.3442 36.5154 33.2996 40.0744 33.7953C42.7304 34.1672 43.4209 35.7076 43.536 36.9736C43.554 37.1953 43.5244 37.4183 43.4491 37.6276C43.3737 37.8368 43.2545 38.0276 43.0993 38.1869C42.9442 38.3463 42.7567 38.4705 42.5495 38.5514C42.3423 38.6323 42.1202 38.6679 41.8981 38.6558L26.5112 37.9652C26.1485 37.9469 25.8032 37.8038 25.5338 37.5602C25.2644 37.3166 25.0874 36.9875 25.0327 36.6284Z" fill="#407BFF"/>
<path opacity="0.6" d="M25.0327 36.6284C24.9737 36.2241 25.0748 35.8128 25.3146 35.4821C25.5544 35.1513 25.9139 34.9273 26.3164 34.8577C29.4328 34.3442 36.5154 33.2996 40.0744 33.7953C42.7304 34.1672 43.4209 35.7076 43.536 36.9736C43.554 37.1953 43.5244 37.4183 43.4491 37.6276C43.3737 37.8368 43.2545 38.0276 43.0993 38.1869C42.9442 38.3463 42.7567 38.4705 42.5495 38.5514C42.3423 38.6323 42.1202 38.6679 41.8981 38.6558L26.5112 37.9652C26.1485 37.9469 25.8032 37.8038 25.5338 37.5602C25.2644 37.3166 25.0874 36.9875 25.0327 36.6284Z" fill="black"/>
<path d="M33.9302 191.295L39.6406 195.261L49.1932 182.308L43.4829 178.351L33.9302 191.295Z" fill="#E58A7B"/>
<path d="M20.615 191.038L26.644 194.473L35.0989 180.777L29.0698 177.342L20.615 191.038Z" fill="#E58A7B"/>
<path d="M49.1844 182.308L44.2619 188.984L38.5516 185.026L43.474 178.351L49.1844 182.308Z" fill="#CF6F64"/>
<path d="M29.0609 177.342L35.0989 180.786L30.7431 187.842L24.7051 184.398L29.0609 177.342Z" fill="#CF6F64"/>
<path d="M38.7464 79.8676C38.7464 79.8676 61.0389 107.959 56.8513 134.829C53.4782 156.528 33.9125 185.912 33.9125 185.912L24.714 181.343C31.1977 168.352 36.7307 154.907 41.2696 141.114C42.6692 136.832 43.0778 132.288 42.4643 127.825C41.8508 123.362 40.2314 119.097 37.7283 115.351C26.4315 98.8578 8.33551 108.676 20.5087 79.8676H38.7464Z" fill="#407BFF"/>
<path opacity="0.6" d="M38.7464 79.8676C38.7464 79.8676 61.0389 107.959 56.8513 134.829C53.4782 156.528 33.9125 185.912 33.9125 185.912L24.714 181.343C31.1977 168.352 36.7307 154.907 41.2696 141.114C42.6692 136.832 43.0778 132.288 42.4643 127.825C41.8508 123.362 40.2314 119.097 37.7283 115.351C26.4315 98.8578 8.33551 108.676 20.5087 79.8676H38.7464Z" fill="black"/>
<path opacity="0.4" d="M49.6801 97.9105L46.4398 94.6879C46.4398 94.9447 52.7168 133.695 54.4786 144.585C55.5183 141.404 56.3144 138.148 56.8601 134.846C58.9318 121.664 54.6025 108.198 49.6801 97.9105Z" fill="black"/>
<path d="M48.6974 79.8676C48.6974 79.8676 75.5405 115.174 76.3018 136.342C76.9304 154.049 47.0861 188.355 47.0861 188.355L38.41 182.742C38.41 182.742 55.8774 158.378 60.2775 138.476C58.5777 118.751 22.6335 79.8676 22.6335 79.8676H48.6974Z" fill="#407BFF"/>
<path opacity="0.6" d="M48.6974 79.8676C48.6974 79.8676 75.5405 115.174 76.3018 136.342C76.9304 154.049 47.0861 188.355 47.0861 188.355L38.41 182.742C38.41 182.742 55.8774 158.378 60.2775 138.476C58.5777 118.751 22.6335 79.8676 22.6335 79.8676H48.6974Z" fill="black"/>
<path d="M15.4889 37.735C12.6205 38.4167 9.8671 48.8459 9.8671 48.8459L21.0842 56.3357C21.0842 56.3357 24.8202 48.0845 23.5099 44.4723C22.1554 40.7097 19.0922 36.8763 15.4889 37.735Z" fill="#407BFF"/>
<path opacity="0.2" d="M17.6845 44.4547L16.9054 53.5469L21.0753 56.3446C22.2267 53.7525 23.0791 51.0377 23.6162 48.2527L17.6845 44.4547Z" fill="black"/>
<path d="M52.0174 37.9387C52.0174 37.9387 55.3285 39.0984 48.6974 79.8588H20.491C20.9691 68.3496 20.9779 61.267 15.4889 37.735C19.4384 36.9211 23.4417 36.3944 27.4674 36.1592C31.7321 35.8534 36.0133 35.8534 40.278 36.1592C45.7847 36.6638 52.0174 37.9387 52.0174 37.9387Z" fill="#407BFF"/>
<path d="M54.8858 44.4546C55.5233 46.2253 56.1961 48.1287 56.9044 49.9613C57.6127 51.794 58.2855 53.6797 59.0026 55.5389L61.1716 61.0987L61.7205 62.4887L62.0039 63.1792L62.1367 63.5245C62.1367 63.5865 62.1367 63.5865 62.1367 63.5776C61.9749 63.3496 61.7628 63.1618 61.5169 63.0287C61.1667 62.8226 60.7718 62.7042 60.366 62.6835C60.0288 62.6729 59.6934 62.7364 59.3833 62.8694C58.976 63.0553 58.976 63.135 58.9849 63.1261C59.0585 63.0671 59.124 62.9986 59.1797 62.9225C59.6697 62.2791 60.0939 61.588 60.4457 60.8597C60.8618 60.0452 61.2602 59.1776 61.6586 58.3011C62.4377 56.5305 63.1548 54.6978 63.8719 52.8475C64.589 50.9972 65.2707 49.1291 65.9347 47.2434L67.9532 41.595L71.3617 42.4804C70.6889 46.5174 69.8213 50.4483 68.7766 54.4499C68.2719 56.4419 67.6788 58.4162 67.0059 60.4082C66.6695 61.4086 66.2977 62.4002 65.8727 63.4183C65.4298 64.5233 64.8844 65.5844 64.2437 66.5877C64.0082 66.9254 63.7478 67.2451 63.4646 67.5439C63.0125 68.0322 62.4638 68.4211 61.8534 68.686C61.3116 68.9185 60.7249 69.0274 60.1358 69.0047C59.4759 68.9801 58.8331 68.7882 58.2678 68.4469C57.6008 68.0307 57.0473 67.4558 56.6565 66.7737C56.5237 66.5435 56.4086 66.3133 56.3289 66.1451L56.1607 65.8086L55.8243 65.1181L55.1514 63.7458C54.2661 61.9044 53.3808 60.0452 52.6106 58.1772C51.8403 56.3091 51.0258 54.4145 50.2645 52.5111C49.5031 50.6076 48.8214 48.7042 48.1751 46.6502L54.8858 44.4546Z" fill="#E58A7B"/>
<path d="M52.0174 37.9386C55.4082 38.7443 59.224 48.7661 59.224 48.7661L49.1401 57.3449C49.1401 57.3449 42.6153 46.42 43.9344 42.8167C45.3066 39.063 47.5908 36.8851 52.0174 37.9386Z" fill="#407BFF"/>
<path d="M69.5557 38.4256L73.097 35.4686L75.5582 39.3021L73.7433 42.4981C73.7433 42.4981 70.8571 45.1541 68.3074 43.7995C67.9027 42.8899 67.8056 41.8731 68.0309 40.9034C68.2561 39.9336 68.7915 39.0637 69.5557 38.4256Z" fill="#E58A7B"/>
<path d="M79.489 35.4775L79.2234 36.4425L73.6193 37.3809L73.0704 35.4686L79.489 35.4775Z" fill="#E58A7B"/>
<path d="M47.7767 188.807L37.6663 182.273L39.4812 179.121L50.8399 186.107L47.7767 188.807Z" fill="#407BFF"/>
<path d="M30.6014 194.012C29.7143 193.904 28.862 193.602 28.1048 193.127C28.0735 193.116 28.0464 193.096 28.0273 193.069C28.0081 193.042 27.9978 193.01 27.9978 192.977C27.9978 192.944 28.0081 192.911 28.0273 192.884C28.0464 192.857 28.0735 192.837 28.1048 192.826C28.3792 192.738 30.7608 192.003 31.4513 192.569C31.5289 192.634 31.5879 192.718 31.6222 192.813C31.6564 192.908 31.6647 193.01 31.6461 193.109C31.6338 193.269 31.581 193.422 31.4927 193.556C31.4043 193.689 31.2834 193.797 31.1415 193.871C30.9757 193.961 30.7903 194.01 30.6014 194.012ZM28.6094 193.039C29.7161 193.605 30.6014 193.809 31.0264 193.596C31.1189 193.545 31.1968 193.471 31.2525 193.381C31.3083 193.291 31.3402 193.189 31.3451 193.083C31.3451 192.941 31.3451 192.879 31.2654 192.844C30.8936 192.543 29.5656 192.773 28.5917 193.039H28.6094Z" fill="#263238"/>
<path d="M28.1668 193.189C28.1201 193.188 28.0755 193.169 28.0428 193.136C28.0296 193.111 28.0227 193.084 28.0227 193.056C28.0227 193.029 28.0296 193.001 28.0428 192.977C28.0428 192.897 28.6183 190.976 29.5213 190.542C29.6366 190.489 29.7619 190.462 29.8887 190.462C30.0155 190.462 30.1408 190.489 30.2561 190.542C30.3805 190.581 30.4881 190.661 30.5619 190.768C30.6357 190.876 30.6714 191.005 30.6634 191.135C30.6014 191.932 28.9813 193.03 28.2376 193.216L28.1668 193.189ZM29.8843 190.772C29.7982 190.775 29.7136 190.796 29.6364 190.834C29.0875 191.1 28.636 192.136 28.4146 192.764C29.1937 192.437 30.265 191.569 30.3004 191.082C30.3004 191.002 30.3004 190.905 30.0968 190.816C30.0305 190.781 29.9587 190.757 29.8843 190.746V190.772Z" fill="#263238"/>
<path d="M43.235 197.837C42.2346 197.837 40.8446 196.553 40.0832 195.765C40.0638 195.738 40.0533 195.706 40.0533 195.672C40.0533 195.639 40.0638 195.607 40.0832 195.58C40.1007 195.551 40.1256 195.528 40.1552 195.512C40.1848 195.497 40.218 195.489 40.2514 195.491C40.6056 195.491 43.6776 195.951 44.1115 196.819C44.1574 196.897 44.1816 196.985 44.1816 197.076C44.1816 197.166 44.1574 197.255 44.1115 197.332C44.0464 197.468 43.9481 197.584 43.8258 197.671C43.7034 197.757 43.5611 197.812 43.4121 197.828L43.235 197.837ZM40.6675 195.889C41.783 196.969 42.7658 197.571 43.3235 197.501C43.4212 197.488 43.5143 197.451 43.5945 197.394C43.6748 197.337 43.7398 197.261 43.7839 197.173C43.8037 197.143 43.8142 197.107 43.8142 197.071C43.8142 197.035 43.8037 197 43.7839 196.969C43.5537 196.491 41.9158 196.084 40.6675 195.889Z" fill="#263238"/>
<path d="M40.7649 195.845C40.5662 195.851 40.3674 195.836 40.1718 195.801C40.1444 195.797 40.1186 195.786 40.0969 195.769C40.0752 195.751 40.0583 195.729 40.0478 195.703C40.0346 195.677 40.0277 195.649 40.0277 195.619C40.0277 195.59 40.0346 195.561 40.0478 195.535C40.1009 195.473 41.2961 194.03 42.4293 193.933C42.7501 193.908 43.068 194.01 43.3147 194.216C43.66 194.517 43.6422 194.783 43.5537 194.951C43.3324 195.553 41.8008 195.845 40.7649 195.845ZM40.5348 195.518C41.5263 195.571 43.111 195.243 43.3147 194.809C43.3147 194.809 43.3855 194.668 43.1553 194.473C43.0637 194.393 42.9567 194.333 42.841 194.297C42.7252 194.26 42.6032 194.248 42.4825 194.26C41.7191 194.473 41.0394 194.915 40.5348 195.526V195.518Z" fill="#263238"/>
<path d="M28.4058 192.233L20.8982 190.108C20.7688 190.069 20.6295 190.079 20.507 190.136C20.3844 190.193 20.2873 190.294 20.2342 190.418L17.7022 196.111C17.6428 196.257 17.6148 196.413 17.6203 196.571C17.6258 196.728 17.6645 196.882 17.7339 197.024C17.8033 197.165 17.9018 197.29 18.023 197.391C18.1442 197.491 18.2853 197.565 18.437 197.607C21.093 198.297 22.3679 198.492 25.6701 199.44C27.7064 200.006 30.6102 201.06 33.4167 201.856C36.2232 202.653 37.1616 199.918 36.0727 199.333C31.1503 196.73 30.7608 194.907 29.4151 192.959C29.1741 192.606 28.8169 192.349 28.4058 192.233Z" fill="#407BFF"/>
<path d="M40.2869 194.73L33.8771 190.303C33.7684 190.224 33.6345 190.187 33.5007 190.2C33.3668 190.213 33.2425 190.275 33.1511 190.374L28.9016 194.942C28.798 195.06 28.7208 195.199 28.675 195.349C28.6292 195.499 28.6159 195.658 28.636 195.813C28.6561 195.969 28.7091 196.119 28.7916 196.253C28.874 196.386 28.9839 196.501 29.1141 196.589C31.3716 198.103 32.5403 198.714 35.3645 200.67C37.1351 201.874 40.5613 204.548 42.9517 206.212C45.3421 207.877 47.1216 205.593 46.2716 204.689C42.4647 200.626 41.6325 198.076 41.004 195.765C40.8948 195.346 40.6408 194.979 40.2869 194.73Z" fill="#407BFF"/>
<path d="M35.09 186.496L23.5365 180.75L24.7317 177.616L37.0731 183.672L35.09 186.496Z" fill="#407BFF"/>
<path d="M20.066 78.2032L19.0922 80.7529C18.9948 80.9477 19.225 81.1513 19.5526 81.1513H48.8391C49.0958 81.1513 49.3083 81.0274 49.326 80.868L49.5739 78.336C49.5739 78.1678 49.3703 78.0173 49.0958 78.0173H20.5264C20.4404 78.0092 20.3537 78.0218 20.2736 78.0542C20.1935 78.0865 20.1223 78.1376 20.066 78.2032Z" fill="#407BFF"/>
<path opacity="0.4" d="M20.066 78.2032L19.0922 80.7529C18.9948 80.9477 19.225 81.1513 19.5526 81.1513H48.8391C49.0958 81.1513 49.3083 81.0274 49.326 80.868L49.5739 78.336C49.5739 78.1678 49.3703 78.0173 49.0958 78.0173H20.5264C20.4404 78.0092 20.3537 78.0218 20.2736 78.0542C20.1935 78.0865 20.1223 78.1376 20.066 78.2032Z" fill="white"/>
<path d="M24.6786 81.3992H23.9084C23.7578 81.3992 23.6427 81.3196 23.6516 81.2222L24.0146 77.9376C24.0146 77.8491 24.1562 77.7694 24.3067 77.7694H25.077C25.2275 77.7694 25.3426 77.8491 25.3337 77.9376L24.9707 81.2222C24.9619 81.3196 24.8291 81.3992 24.6786 81.3992Z" fill="#407BFF"/>
<path d="M42.7392 81.3992H41.9778C41.8273 81.3992 41.7122 81.3196 41.7211 81.2222L42.0752 77.9376C42.0752 77.8491 42.2257 77.7694 42.3762 77.7694H43.1376C43.2881 77.7694 43.4121 77.8491 43.3944 77.9376L43.0402 81.2222C42.996 81.3196 42.8986 81.3992 42.7392 81.3992Z" fill="#407BFF"/>
<g style="mix-blend-mode:multiply">
<path d="M24.0057 231.329C37.1047 231.329 47.7236 230.56 47.7236 229.611C47.7236 228.663 37.1047 227.894 24.0057 227.894C10.9067 227.894 0.287903 228.663 0.287903 229.611C0.287903 230.56 10.9067 231.329 24.0057 231.329Z" fill="#F5F5F5"/>
</g>
<path d="M38.4542 227.186C34.2578 225.964 29.601 224.397 26.7857 222.759C26.706 222.706 26.6174 222.679 26.5378 222.635V203.636H35.028C35.6725 203.598 36.2781 203.315 36.7209 202.845C37.1638 202.375 37.4104 201.754 37.4104 201.108C37.4104 200.463 37.1638 199.841 36.7209 199.372C36.2781 198.902 35.6725 198.619 35.028 198.581H26.582V111.978H21.4826V198.581H13.0454C12.7009 198.56 12.3559 198.611 12.0315 198.728C11.7071 198.846 11.4102 199.029 11.1591 199.266C10.9079 199.503 10.7078 199.788 10.5711 200.105C10.4343 200.422 10.3637 200.763 10.3637 201.108C10.3637 201.453 10.4343 201.795 10.5711 202.112C10.7078 202.429 10.9079 202.714 11.1591 202.951C11.4102 203.188 11.7071 203.371 12.0315 203.488C12.3559 203.606 12.7009 203.656 13.0454 203.636H21.4826V222.608C21.4029 222.608 21.3232 222.679 21.2435 222.732C18.3839 224.397 13.7625 225.964 9.56609 227.159C9.28262 227.245 9.0392 227.429 8.87992 227.679C8.72063 227.928 8.656 228.227 8.69773 228.52C8.73947 228.813 8.8848 229.082 9.10742 229.277C9.33004 229.472 9.61523 229.582 9.91137 229.585H38.1089C38.3919 229.566 38.6597 229.45 38.8677 229.257C39.0756 229.064 39.2111 228.806 39.2515 228.525C39.2919 228.244 39.2348 227.958 39.0897 227.714C38.9446 227.47 38.7203 227.284 38.4542 227.186Z" fill="#E0E0E0"/>
<path d="M39.7556 103.161H8.27351C5.74074 103.161 3.68753 105.214 3.68753 107.746V117.104C3.68753 119.637 5.74074 121.69 8.27351 121.69H39.7556C42.2884 121.69 44.3416 119.637 44.3416 117.104V107.746C44.3416 105.214 42.2884 103.161 39.7556 103.161Z" fill="#407BFF"/>
<path d="M7.98135 121.699V123.311C7.98135 124.639 9.42444 125.719 11.1951 125.719H36.8695C38.6401 125.719 40.0832 124.639 40.0832 123.311V121.699H7.98135Z" fill="#407BFF"/>
<path opacity="0.3" d="M7.98135 121.699V123.311C7.98135 124.639 9.42444 125.719 11.1951 125.719H36.8695C38.6401 125.719 40.0832 124.639 40.0832 123.311V121.699H7.98135Z" fill="white"/>
</svg>
