<svg width="103" height="286" viewBox="0 0 103 286" fill="none" xmlns="http://www.w3.org/2000/svg">
<path d="M55.1995 58.9957L46.4171 55.4544C46.4171 55.4544 34.8282 76.5871 31.5083 77.6583C26.9931 79.1103 17.6441 83.1474 12.102 83.8556C11.3494 84.7409 10.1188 87.4943 10.2339 88.4947C17.6795 90.9825 34.0403 87.6802 37.5462 85.0774C45.5229 79.1723 55.1995 58.9957 55.1995 58.9957Z" fill="#E58A7B"/>
<path d="M57.8998 54.1884C59.5376 60.2352 50.6667 72.3995 50.6667 72.3995L39.0424 65.8835C39.0424 65.8835 41.2203 60.8814 43.8762 55.7908C48.1346 47.5662 56.0317 47.2917 57.8998 54.1884Z" fill="#407BFF"/>
<path opacity="0.2" d="M57.8998 54.1884C59.5376 60.2352 50.6667 72.3995 50.6667 72.3995L39.0424 65.8835C39.0424 65.8835 41.2203 60.8814 43.8762 55.7908C48.1346 47.5662 56.0317 47.2917 57.8998 54.1884Z" fill="black"/>
<path opacity="0.2" d="M43.6549 68.4864L48.232 71.0538L49.0377 57.0037C46.3729 59.0488 44.496 65.2107 43.6549 68.4864Z" fill="black"/>
<path d="M50.2506 49.6378C50.2506 49.6378 41.2026 69.7701 46.4791 107.255H82.1311C82.6977 101.783 80.8208 75.082 87.6113 49.3014C83.7003 48.5371 79.7432 48.0313 75.7656 47.7875C70.7206 47.4951 65.6628 47.4951 60.6177 47.7875C57.1204 48.1426 53.6548 48.7612 50.2506 49.6378Z" fill="#407BFF"/>
<path opacity="0.2" d="M50.2506 49.6378C50.2506 49.6378 41.2026 69.7701 46.4791 107.255H82.1311C82.6977 101.783 80.8208 75.082 87.6113 49.3014C83.7003 48.5371 79.7432 48.0313 75.7656 47.7875C70.7206 47.4951 65.6628 47.4951 60.6177 47.7875C57.1204 48.1426 53.6548 48.7612 50.2506 49.6378Z" fill="black"/>
<g style="mix-blend-mode:multiply">
<path d="M41.9817 283.611C41.9285 284.567 55.4474 285.338 72.1712 285.338C88.895 285.338 102.511 284.567 102.564 283.611C102.618 282.655 89.1075 281.894 72.3748 281.894C55.6422 281.894 42.0436 282.664 41.9817 283.611Z" fill="#E8ECF1"/>
</g>
<path d="M65.7797 258.488L59.4564 260.936L64.9032 275.007L71.2266 272.559L65.7797 258.488Z" fill="#E58A7B"/>
<path d="M93.9767 276.803H87.3103L84.8668 261.372H91.5333L93.9767 276.803Z" fill="#E58A7B"/>
<path d="M86.8499 276.033H94.3397C94.4697 276.033 94.5953 276.08 94.6941 276.164C94.793 276.248 94.8588 276.365 94.8798 276.493L95.8448 282.416C95.8651 282.565 95.8532 282.716 95.8099 282.86C95.7666 283.003 95.6929 283.136 95.5938 283.248C95.4947 283.361 95.3725 283.451 95.2355 283.512C95.0986 283.573 94.9501 283.604 94.8001 283.603C92.1884 283.558 90.9312 283.399 87.6378 283.399C85.6104 283.399 81.4405 283.611 78.6252 283.611C75.8099 283.611 75.624 280.849 76.7837 280.592C81.9895 279.468 84.008 277.936 85.7432 276.449C86.0492 276.18 86.4427 276.032 86.8499 276.033Z" fill="#263238"/>
<path d="M64.7168 273.749L71.7994 271.677C71.9258 271.641 72.0606 271.65 72.1813 271.702C72.3021 271.753 72.4016 271.845 72.4634 271.96L75.1194 277.272C75.181 277.407 75.2126 277.554 75.2117 277.702C75.2109 277.85 75.1777 277.996 75.1144 278.13C75.0512 278.265 74.9595 278.383 74.8456 278.478C74.7318 278.573 74.5986 278.642 74.4554 278.68C71.8791 279.388 70.1527 279.822 66.9301 280.761C64.7079 281.407 62.4415 282.46 60.2459 283.16C58.7232 283.647 55.1464 283.664 53.2961 283.664C50.5605 283.664 49.9496 280.778 51.1271 280.645C54.0929 280.318 54.4913 280.468 56.1291 279.645C58.8091 278.474 61.2379 276.796 63.2826 274.705C63.6681 274.265 64.1629 273.936 64.7168 273.749Z" fill="#263238"/>
<path d="M13.2175 83.8202L5.88697 80.7481L2.86804 88.8754C5.87262 89.3331 8.92918 89.3331 11.9338 88.8754L13.2175 83.8202Z" fill="#E58A7B"/>
<path d="M0.433389 80.5356L0.238617 85.9361L2.86803 88.8577L5.88696 80.7304L0.433389 80.5356Z" fill="#E58A7B"/>
<path d="M66.6471 259.683L60.3041 262.132L63.1133 269.408L69.4563 266.96L66.6471 259.683Z" fill="#CF6F64"/>
<path d="M91.5333 261.372H84.8668L86.1328 269.331H92.7993L91.5333 261.372Z" fill="#CF6F64"/>
<path opacity="0.2" d="M45.3459 97.1178C45.4787 98.7202 45.6292 100.358 45.824 102.04L72.3306 93.4348C76.47 92.208 80.0675 89.6067 82.5295 86.0601C82.6357 83.6962 82.7686 81.2085 82.9722 78.6145C83.0607 77.3573 83.167 76.0647 83.282 74.7545C83.3971 73.4442 83.5565 71.9923 83.7247 70.5934L45.3459 97.1178Z" fill="black"/>
<path d="M54.0044 68.0791L53.119 67.9729C53.6414 63.5463 56.9436 60.0581 60.423 60.1466V61.0319C57.3774 60.97 54.4736 64.1129 54.0044 68.0791Z" fill="white"/>
<path d="M58.7231 76.2507H58.5726V75.3653C61.6181 75.4804 64.4778 72.3021 64.947 68.3447L65.8323 68.451C65.3631 72.7802 62.1671 76.2507 58.7231 76.2507Z" fill="white"/>
<path d="M75.2699 30.7273C74.0216 35.6054 72.5519 44.5384 75.7657 47.7875C75.7657 47.7875 73.5169 52.7365 64.46 52.7365C56.1823 52.7365 60.6177 47.7875 60.6177 47.7875C66.1245 46.4949 66.2219 42.4756 65.4959 38.6687L75.2699 30.7273Z" fill="#E58A7B"/>
<path d="M71.2859 33.9676L65.5047 38.6687C65.6839 39.5435 65.7876 40.4321 65.8146 41.3246C67.5055 43.0068 70.8963 38.7483 71.2416 36.5704C71.4171 35.713 71.4321 34.8305 71.2859 33.9676Z" fill="#CF6F64"/>
<path d="M55.5625 30.6653C55.9648 31.3626 56.5066 31.9693 57.154 32.4476C57.8014 32.926 58.5405 33.2656 59.3252 33.4453C61.45 33.9145 62.5123 31.9579 61.928 29.9925C61.4057 28.2218 59.6616 25.8403 57.5014 26.2476C57.0387 26.3429 56.6055 26.5477 56.2382 26.8448C55.8709 27.142 55.5802 27.5228 55.3903 27.9554C55.2004 28.388 55.117 28.8598 55.147 29.3313C55.1769 29.8028 55.3194 30.2602 55.5625 30.6653Z" fill="#CF6F64"/>
<path d="M59.0773 15.0571C55.7662 16.571 54.5975 29.7269 58.7586 31.6746C62.9196 33.6223 65.3454 12.1798 59.0773 15.0571Z" fill="#263238"/>
<path d="M76.2791 23.3879C75.4823 29.9924 75.3938 33.879 71.8525 37.261C70.7551 38.3833 69.369 39.1805 67.8471 39.5646C66.3252 39.9487 64.7267 39.9047 63.2282 39.4376C61.7297 38.9704 60.3895 38.0983 59.3554 36.9174C58.3214 35.7365 57.6338 34.2929 57.3686 32.7458C56.2974 26.8141 57.7758 17.0136 64.3981 14.3842C65.7895 13.7705 67.3197 13.5401 68.8301 13.7169C70.3405 13.8937 71.7761 14.4713 72.9881 15.3898C74.2001 16.3083 75.1444 17.5343 75.7231 18.9406C76.3017 20.3469 76.4937 21.8824 76.2791 23.3879Z" fill="#E58A7B"/>
<path d="M65.3985 18.4744C70.3032 17.2261 73.9065 16.3762 72.6139 20.4575C70.9052 25.9111 68.8512 31.1877 71.6046 31.4267C73.2867 31.5772 80.7235 28.4254 79.7762 25.2294C78.9528 22.4495 82.4321 21.6881 83.0518 20.2805C85.3448 15.181 78.7846 15.8538 79.9532 12.7552C81.1218 9.65656 74.6413 4.66334 71.1 7.1511C65.3365 11.1705 55.4474 11.1085 60.6443 4.49513C64.3715 -0.223652 57.7227 0.741347 57.7227 0.741347C57.7227 0.741347 61.7421 3.12287 54.9782 6.80582C47.8248 10.7367 54.385 21.2986 65.3985 18.4744Z" fill="#263238"/>
<path d="M78.882 30.6653C77.9137 32.0664 76.459 33.0573 74.8007 33.4453C72.6139 33.9145 71.7728 31.9579 72.5962 29.9925C73.331 28.2218 75.3495 25.8403 77.4389 26.2476C79.5283 26.6548 80.0063 28.9301 78.882 30.6653Z" fill="#E58A7B"/>
<path d="M46.4791 107.255C46.4791 107.255 40.4943 160.817 40.0251 181.144C39.547 202.285 60.3079 268.251 60.3079 268.251L70.9317 263.824C70.9317 263.824 58.5372 203.552 60.3079 182.791C62.1847 160.153 69.9402 107.29 69.9402 107.29L46.4791 107.255Z" fill="#407BFF"/>
<path opacity="0.2" d="M61.3526 121.96C56.5807 131.858 59.7944 151.432 62.3795 163.03C63.3622 154.841 64.5309 145.952 65.6375 137.728C65.5313 125.085 64.5486 115.32 61.3526 121.96Z" fill="black"/>
<path d="M70.4625 260.318C70.5157 260.318 71.7197 263.7 71.7197 263.7L59.4668 268.853L57.5368 265.259L70.4625 260.318Z" fill="#407BFF"/>
<path d="M59.1304 107.255C59.1304 107.255 63.7075 158.196 66.7353 177.275C70.0641 198.178 83.1138 267.791 83.1138 267.791H95.3225C95.3225 267.791 88.0097 199.869 86.6286 179.17C85.1235 156.718 82.1311 107.255 82.1311 107.255H59.1304Z" fill="#407BFF"/>
<path d="M95.5084 264.612C95.5615 264.612 95.9156 268.021 95.9156 268.021H82.4941L81.5379 264.108L95.5084 264.612Z" fill="#407BFF"/>
<path opacity="0.2" d="M90.8338 260.575C90.8062 260.576 90.7793 260.566 90.7581 260.548C90.737 260.53 90.723 260.505 90.7187 260.478C90.6479 259.858 84.0523 198.505 82.8128 179.913C81.4671 159.746 78.758 115.01 78.7314 114.559C78.7302 114.544 78.7321 114.529 78.7369 114.515C78.7416 114.501 78.7493 114.489 78.7593 114.478C78.7693 114.467 78.7814 114.458 78.7949 114.452C78.8084 114.447 78.823 114.443 78.8377 114.444C78.8668 114.443 78.8948 114.454 78.9161 114.474C78.9375 114.494 78.9505 114.521 78.9528 114.55C78.9528 115.001 81.6884 159.701 83.0341 179.904C84.2736 198.496 90.8692 259.805 90.9312 260.469C90.9337 260.484 90.9332 260.499 90.9295 260.513C90.9259 260.527 90.9192 260.541 90.9101 260.553C90.9009 260.564 90.8894 260.574 90.8762 260.581C90.8631 260.588 90.8487 260.592 90.8338 260.593V260.575Z" fill="black"/>
<path d="M66.151 25.2294C66.151 25.7695 65.8146 26.2033 65.4604 26.2033C65.1063 26.2033 64.8496 25.7695 64.885 25.2294C64.9204 24.6894 65.2214 24.2556 65.5755 24.2556C65.9297 24.2556 66.1864 24.6982 66.151 25.2294Z" fill="#263238"/>
<path d="M60.0777 25.2294C60.0777 25.7695 59.7324 26.2033 59.3871 26.2033C59.0419 26.2033 58.7763 25.7695 58.8028 25.2294C58.8294 24.6894 59.1481 24.2556 59.5022 24.2556C59.8563 24.2556 60.1131 24.6982 60.0777 25.2294Z" fill="#263238"/>
<path d="M61.99 25.5038C61.251 27.1529 60.2985 28.6978 59.157 30.0987C60.0423 30.984 61.6978 30.5768 61.6978 30.5768L61.99 25.5038Z" fill="#DF5753"/>
<path d="M62.1493 32.8344C62.1288 32.8344 62.1085 32.8302 62.0896 32.8221C62.0708 32.814 62.0537 32.8021 62.0397 32.7872C62.0256 32.7723 62.0147 32.7546 62.0076 32.7353C62.0006 32.716 61.9976 32.6955 61.9988 32.675C62.0011 32.6319 62.0198 32.5914 62.0511 32.5617C62.0824 32.5321 62.1239 32.5156 62.167 32.5156C62.8442 32.5203 63.5137 32.3732 64.1265 32.0852C64.7394 31.7972 65.2799 31.3755 65.7083 30.8512C65.739 30.8244 65.7783 30.8097 65.819 30.8097C65.8597 30.8097 65.899 30.8244 65.9297 30.8512C65.9583 30.8809 65.9744 30.9206 65.9744 30.9619C65.9744 31.0032 65.9583 31.0428 65.9297 31.0726C65.471 31.6298 64.8934 32.0773 64.2393 32.3821C63.5851 32.687 62.871 32.8415 62.1493 32.8344Z" fill="#263238"/>
<path d="M67.2311 23.6004C67.1886 23.6222 67.1416 23.6335 67.0939 23.6335C67.0462 23.6335 66.9991 23.6222 66.9567 23.6004C66.6255 23.3863 66.2486 23.2531 65.8564 23.2116C65.4642 23.1701 65.0678 23.2214 64.6991 23.3614C64.6632 23.3794 64.624 23.3899 64.5839 23.3925C64.5438 23.3951 64.5035 23.3896 64.4656 23.3764C64.4276 23.3632 64.3927 23.3426 64.3629 23.3157C64.333 23.2887 64.3089 23.2561 64.2918 23.2197C64.259 23.1409 64.2582 23.0524 64.2896 22.9731C64.321 22.8937 64.3822 22.8297 64.46 22.7948C64.9229 22.6057 65.4245 22.5312 65.9224 22.5774C66.4202 22.6236 66.8995 22.7893 67.3196 23.0604C67.3536 23.0834 67.3826 23.113 67.405 23.1474C67.4274 23.1818 67.4428 23.2203 67.4502 23.2606C67.4576 23.301 67.4569 23.3424 67.4482 23.3825C67.4394 23.4226 67.4228 23.4606 67.3993 23.4942C67.3546 23.5449 67.2962 23.5818 67.2311 23.6004Z" fill="#263238"/>
<path d="M57.7316 21.8298C57.6844 21.8183 57.6414 21.7938 57.6076 21.7589C57.5782 21.7301 57.5548 21.6957 57.5388 21.6576C57.5228 21.6196 57.5146 21.5788 57.5146 21.5376C57.5146 21.4964 57.5228 21.4556 57.5388 21.4176C57.5548 21.3796 57.5782 21.3451 57.6076 21.3163C57.9469 20.9357 58.3696 20.6386 58.8425 20.4482C59.3155 20.2578 59.8261 20.1792 60.3344 20.2185C60.3751 20.2248 60.4142 20.2393 60.449 20.2613C60.4839 20.2833 60.5139 20.3122 60.5371 20.3462C60.5603 20.3802 60.5763 20.4187 60.5841 20.4591C60.5919 20.4996 60.5913 20.5412 60.5823 20.5815C60.5633 20.6634 60.5151 20.7357 60.4466 20.7846C60.3782 20.8335 60.2942 20.8557 60.2105 20.8471C59.8082 20.8217 59.4055 20.8883 59.0327 21.0416C58.66 21.195 58.3271 21.4312 58.0592 21.7324C58.0188 21.7772 57.9669 21.81 57.9091 21.8272C57.8513 21.8444 57.7898 21.8453 57.7316 21.8298Z" fill="#263238"/>
<path d="M91.0375 58.013L81.8301 55.5607C81.8301 55.5607 72.7998 77.7912 69.6038 79.2342C65.2657 81.2174 54.2788 88.0875 49.6043 91.3366C49.3475 92.4433 49.5512 95.3737 50.1355 96.1793C58.1034 94.7274 73.3575 88.8577 76.5447 85.8742C83.8132 79.066 91.0375 58.013 91.0375 58.013Z" fill="#E58A7B"/>
<path d="M84.61 277.202C84.1607 277.237 83.7131 277.115 83.344 276.856C83.23 276.753 83.1447 276.623 83.0966 276.477C83.0485 276.331 83.0392 276.175 83.0696 276.024C83.0751 275.93 83.1061 275.839 83.1591 275.761C83.212 275.683 83.2851 275.621 83.3706 275.582C84.1143 275.201 86.1948 276.52 86.4338 276.67C86.4601 276.687 86.4803 276.711 86.4915 276.74C86.5027 276.768 86.5042 276.8 86.4958 276.83C86.4882 276.861 86.4728 276.889 86.4511 276.912C86.4294 276.936 86.4021 276.953 86.3718 276.963C85.7947 277.104 85.2041 277.185 84.61 277.202ZM83.7247 275.821C83.6576 275.806 83.5881 275.806 83.5211 275.821C83.4871 275.838 83.459 275.865 83.4401 275.898C83.4212 275.931 83.4124 275.968 83.4148 276.006C83.3912 276.109 83.3952 276.217 83.4263 276.318C83.4573 276.419 83.5145 276.51 83.5919 276.582C83.9372 276.892 84.8048 276.927 85.9469 276.706C85.2668 276.258 84.501 275.956 83.6981 275.821H83.7247Z" fill="#407BFF"/>
<path d="M86.3276 276.963C86.3045 276.97 86.2797 276.97 86.2567 276.963C85.5927 276.591 84.3444 275.13 84.5303 274.386C84.5581 274.268 84.6247 274.163 84.7195 274.088C84.8142 274.012 84.9316 273.971 85.0527 273.97C85.1715 273.954 85.2923 273.964 85.4069 273.999C85.5215 274.035 85.6272 274.094 85.7167 274.174C86.4515 274.802 86.4958 276.732 86.4958 276.83C86.5001 276.859 86.4945 276.889 86.4801 276.914C86.4657 276.94 86.4432 276.96 86.4161 276.971C86.3864 276.978 86.3555 276.974 86.3276 276.963ZM85.1412 274.262H85.0792C84.8756 274.262 84.8491 274.377 84.8402 274.422C84.734 274.856 85.5219 275.962 86.177 276.485C86.1741 275.737 85.9424 275.008 85.513 274.395C85.4103 274.306 85.2775 274.258 85.1412 274.262Z" fill="#407BFF"/>
<path d="M61.1047 276.095C60.5629 276.284 59.9731 276.284 59.4314 276.095C59.3083 276.028 59.2041 275.932 59.1283 275.814C59.0524 275.697 59.0075 275.562 58.9976 275.422C58.9864 275.335 58.9976 275.246 59.0301 275.164C59.0626 275.082 59.1154 275.009 59.1835 274.953C59.8918 274.315 62.7868 274.953 63.1143 275.077C63.1455 275.085 63.173 275.103 63.1923 275.129C63.2116 275.155 63.2216 275.186 63.2206 275.218C63.2219 275.252 63.2134 275.285 63.196 275.313C63.1787 275.341 63.1534 275.364 63.1232 275.378C62.4713 275.672 61.7961 275.912 61.1047 276.095ZM59.6616 275.041C59.5603 275.062 59.4659 275.107 59.3871 275.174C59.3589 275.195 59.3373 275.224 59.3247 275.257C59.3122 275.29 59.3093 275.326 59.3163 275.36C59.3221 275.453 59.351 275.543 59.4005 275.622C59.45 275.701 59.5184 275.766 59.5996 275.812C60.0688 276.06 61.1578 275.865 62.5654 275.272C61.6173 275.032 60.6356 274.955 59.6616 275.041Z" fill="#407BFF"/>
<path d="M63.0967 275.378H63.0258C62.1405 275.218 60.3698 274.2 60.3167 273.439C60.3167 273.262 60.3964 273.014 60.8214 272.872C60.9649 272.821 61.1173 272.8 61.2694 272.809C61.4216 272.818 61.5703 272.858 61.7067 272.925C62.6628 273.395 63.1675 275.094 63.194 275.174C63.2003 275.201 63.1995 275.229 63.1917 275.255C63.184 275.282 63.1695 275.306 63.1498 275.325C63.1366 275.346 63.1183 275.365 63.0967 275.378ZM60.9984 273.138H60.9099C60.6355 273.235 60.6355 273.35 60.6355 273.386C60.6355 273.846 61.9192 274.687 62.8133 274.971C62.6074 274.259 62.1715 273.637 61.5739 273.2C61.3961 273.109 61.1914 273.087 60.9984 273.138Z" fill="#407BFF"/>
<path d="M50.3568 90.8143L41.1229 95.0638L40.0517 97.7198L43.4601 100.013C43.4601 100.013 49.8345 99.3222 51.6494 95.2232L50.3568 90.8143Z" fill="#E58A7B"/>
<path d="M50.7464 96.3298C50.54 94.5556 49.9542 92.8466 49.0288 91.3189L50.4896 90.2211C51.5885 91.9814 52.2895 93.9605 52.5436 96.0199L50.7464 96.3298Z" fill="#263238"/>
<path d="M52.3222 92.0714C52.5175 92.3784 52.6134 92.7381 52.5969 93.1016C52.5804 93.4651 52.4524 93.8146 52.2302 94.1028C52.008 94.3909 51.7024 94.6035 51.3551 94.7118C51.0077 94.8201 50.6355 94.8188 50.2889 94.708C49.9423 94.5972 49.6383 94.3824 49.4182 94.0927C49.1981 93.803 49.0725 93.4525 49.0587 93.0889C49.0448 92.7253 49.1433 92.3663 49.3407 92.0607C49.5381 91.7551 49.8249 91.5177 50.162 91.3808C50.5404 91.188 50.9797 91.1524 51.3842 91.2817C51.7887 91.411 52.1258 91.6948 52.3222 92.0714Z" fill="#263238"/>
<path d="M34.8813 98.4989L36.112 99.7384L44.3986 96.1971L41.1229 95.0638L34.8813 98.4989Z" fill="#E58A7B"/>
<path opacity="0.2" d="M70.4625 260.318C70.5157 260.318 71.7197 263.7 71.7197 263.7L59.4668 268.853L57.5368 265.259L70.4625 260.318Z" fill="black"/>
<path opacity="0.2" d="M95.5084 264.612C95.5615 264.612 95.9156 268.021 95.9156 268.021H82.4941L81.5379 264.108L95.5084 264.612Z" fill="black"/>
<path d="M93.4367 55.4632C95.8713 63.316 86.3541 74.055 86.3541 74.055L73.207 68.69C74.7654 64.1511 76.5621 59.6976 78.5898 55.3481C82.6269 46.6454 90.9755 47.5396 93.4367 55.4632Z" fill="#407BFF"/>
<path opacity="0.2" d="M93.4367 55.4632C95.8713 63.316 86.3541 74.055 86.3541 74.055L73.207 68.69C74.7654 64.1511 76.5621 59.6976 78.5898 55.3481C82.6269 46.6454 90.9755 47.5396 93.4367 55.4632Z" fill="black"/>
</svg>
