<svg width="124" height="229" viewBox="0 0 124 229" fill="none" xmlns="http://www.w3.org/2000/svg">
<path d="M49.7982 0.784485H44.141V1.69637H49.7982V0.784485Z" fill="#407BFF"/>
<path d="M123.031 36.876L122.346 52.0705L123.257 52.1115L123.942 36.9171L123.031 36.876Z" fill="#407BFF"/>
<path d="M121.27 4.87469H16.8022L7.08134 222.417H111.55L121.27 4.87469Z" fill="#407BFF"/>
<path opacity="0.56" d="M118.154 7.86707H13.6859L3.965 225.409H108.433L118.154 7.86707Z" fill="#FAFAFA"/>
<path opacity="0.07" d="M115.038 10.8506H10.5695L0.839798 228.393H105.308L115.038 10.8506Z" fill="#407BFF"/>
<path d="M103.148 105.731H13.978L13.2343 122.375H102.404L103.148 105.731Z" fill="white"/>
<path d="M63.0161 93.5842H14.5181L14.1905 101.03H62.6886L63.0161 93.5842Z" fill="#407BFF"/>
<path d="M101.138 150.652H11.9683L11.2247 167.296H100.395L101.138 150.652Z" fill="white"/>
<path opacity="0.47" d="M84.7863 189.775H24.8232L23.9291 209.721H83.8921L84.7863 189.775Z" fill="#407BFF"/>
<path d="M80.7757 212.82H20.8127C20.7866 212.826 20.7592 212.826 20.733 212.82C20.7243 212.794 20.7243 212.766 20.733 212.74L21.6184 192.785C21.6183 192.771 21.6211 192.758 21.6265 192.745C21.632 192.733 21.6399 192.722 21.6499 192.713C21.6599 192.703 21.6718 192.696 21.6846 192.692C21.6975 192.688 21.7111 192.686 21.7246 192.687H81.6876C81.6986 192.682 81.7108 192.679 81.723 192.679C81.7353 192.679 81.7475 192.682 81.7585 192.687C81.7647 192.698 81.768 192.71 81.768 192.723C81.768 192.735 81.7647 192.747 81.7585 192.758L80.8908 212.758C80.8802 212.778 80.8635 212.796 80.8429 212.807C80.8224 212.818 80.799 212.822 80.7757 212.82ZM20.919 212.607H80.6695L81.5548 192.864H21.8043L20.919 212.607Z" fill="white"/>
<path d="M52.5427 138.506H12.5084L12.1808 145.96H52.2063L52.5427 138.506Z" fill="#407BFF"/>
<path d="M83.6442 51.9651C83.4153 56.8091 81.6928 61.4634 78.7129 65.2892C76.5071 68.1791 73.6685 70.5251 70.4149 72.1472C67.1614 73.7694 63.5795 74.6246 59.9441 74.6471C57.0063 74.6695 54.095 74.0902 51.3896 72.9449C48.6841 71.7996 46.2418 70.1125 44.2131 67.9875C42.1844 65.8626 40.6122 63.3448 39.5933 60.5892C38.5745 57.8337 38.1306 54.8987 38.289 51.9651C38.6004 45.8776 41.2255 40.139 45.6276 35.9229C50.0297 31.7068 55.8762 29.3316 61.9715 29.2831C64.9115 29.2557 67.8259 29.8314 70.5346 30.9748C73.2433 32.1181 75.6888 33.8048 77.72 35.9305C79.7511 38.0563 81.3248 40.576 82.3438 43.3339C83.3627 46.0918 83.8053 49.0294 83.6442 51.9651Z" fill="white"/>
<path d="M85.7778 34.0284C85.7201 35.3164 85.2621 36.5543 84.4676 37.5697C83.8797 38.3373 83.1242 38.9604 82.2589 39.3915C81.3935 39.8227 80.4411 40.0505 79.4743 40.0575C78.5376 40.0632 77.6138 39.8394 76.7835 39.4058C75.9532 38.9721 75.2418 38.3417 74.7113 37.5697C74.0088 36.5265 73.6611 35.2848 73.7197 34.0284C73.8053 32.4122 74.5042 30.8895 75.6739 29.7708C76.8436 28.6521 78.3959 28.0217 80.0144 28.0082C80.7952 28.0011 81.5691 28.1539 82.2886 28.4573C83.0081 28.7607 83.6578 29.2081 84.1978 29.7722C84.7377 30.3362 85.1565 31.0048 85.4282 31.7368C85.7 32.4688 85.819 33.2487 85.7778 34.0284Z" fill="#407BFF"/>
<path d="M23.5838 114.053C23.5413 114.766 23.2298 115.437 22.7123 115.93C22.1948 116.423 21.5096 116.701 20.795 116.709C20.45 116.713 20.1077 116.646 19.7895 116.513C19.4712 116.379 19.1837 116.182 18.9448 115.933C18.7058 115.684 18.5204 115.389 18.4001 115.066C18.2798 114.742 18.2271 114.398 18.2453 114.053C18.2837 113.338 18.5938 112.665 19.1122 112.171C19.6306 111.677 20.3181 111.4 21.034 111.397C21.3787 111.394 21.7204 111.462 22.038 111.596C22.3557 111.729 22.6427 111.927 22.8814 112.175C23.1201 112.424 23.3055 112.719 23.4263 113.042C23.5471 113.365 23.6007 113.709 23.5838 114.053Z" fill="#263238"/>
<path d="M35.518 114.053C35.4775 114.767 35.1667 115.439 34.6487 115.932C34.1308 116.426 33.4445 116.703 32.7292 116.709C32.3849 116.712 32.0436 116.644 31.7264 116.51C31.4092 116.376 31.1228 116.179 30.8848 115.93C30.6467 115.681 30.4622 115.386 30.3424 115.063C30.2226 114.741 30.1702 114.397 30.1883 114.053C30.2266 113.34 30.5355 112.668 31.052 112.174C31.5686 111.681 32.2538 111.403 32.9682 111.397C33.3133 111.393 33.6555 111.46 33.9737 111.593C34.292 111.726 34.5795 111.924 34.8185 112.173C35.0575 112.421 35.2428 112.717 35.3631 113.04C35.4835 113.364 35.5361 113.708 35.518 114.053Z" fill="#263238"/>
<path d="M47.461 114.053C47.4205 114.767 47.1097 115.439 46.5918 115.932C46.0738 116.426 45.3875 116.703 44.6722 116.709C44.3275 116.712 43.9859 116.644 43.6682 116.51C43.3506 116.376 43.0636 116.179 42.8249 115.93C42.5862 115.682 42.4008 115.387 42.28 115.064C42.1592 114.741 42.1056 114.397 42.1225 114.053C42.163 113.339 42.4737 112.667 42.9917 112.173C43.5097 111.68 44.196 111.403 44.9113 111.397C45.2563 111.393 45.5985 111.46 45.9168 111.593C46.235 111.726 46.5225 111.924 46.7615 112.173C47.0005 112.421 47.1859 112.717 47.3062 113.04C47.4265 113.364 47.4792 113.708 47.461 114.053Z" fill="#263238"/>
<path d="M21.5741 158.974C21.5316 159.688 21.2202 160.358 20.7026 160.851C20.1851 161.344 19.5 161.623 18.7853 161.63C18.4406 161.633 18.099 161.565 17.7814 161.432C17.4637 161.298 17.1767 161.1 16.938 160.852C16.6993 160.603 16.5139 160.308 16.3931 159.985C16.2723 159.663 16.2187 159.319 16.2356 158.974C16.2761 158.26 16.5868 157.588 17.1048 157.095C17.6228 156.602 18.3091 156.324 19.0244 156.318C19.3691 156.315 19.7107 156.383 20.0284 156.517C20.346 156.651 20.633 156.848 20.8717 157.097C21.1104 157.345 21.2958 157.64 21.4166 157.963C21.5374 158.286 21.591 158.63 21.5741 158.974Z" fill="#263238"/>
<path d="M33.5083 158.974C33.4679 159.687 33.1584 160.358 32.6423 160.851C32.1262 161.344 31.4421 161.622 30.7283 161.63C30.3833 161.634 30.0411 161.568 29.7228 161.434C29.4046 161.301 29.1171 161.104 28.8781 160.855C28.6391 160.606 28.4537 160.31 28.3334 159.987C28.2131 159.664 28.1604 159.319 28.1786 158.974C28.2191 158.26 28.5299 157.588 29.0478 157.095C29.5658 156.602 30.2521 156.324 30.9674 156.318C31.3117 156.315 31.653 156.383 31.9702 156.517C32.2874 156.651 32.5738 156.848 32.8118 157.097C33.0498 157.346 33.2344 157.641 33.3542 157.964C33.474 158.286 33.5264 158.63 33.5083 158.974Z" fill="#263238"/>
<path d="M45.4779 158.974C45.4374 159.688 45.1266 160.36 44.6087 160.854C44.0907 161.347 43.4044 161.625 42.6891 161.63C42.3448 161.632 42.0037 161.563 41.6866 161.429C41.3696 161.295 41.0831 161.097 40.8447 160.849C40.6062 160.601 40.4207 160.306 40.2995 159.984C40.1782 159.662 40.1238 159.318 40.1394 158.974C40.1819 158.261 40.4933 157.59 41.0108 157.097C41.5283 156.604 42.2135 156.326 42.9281 156.318C43.2732 156.314 43.6154 156.381 43.9337 156.514C44.2519 156.648 44.5394 156.845 44.7784 157.094C45.0174 157.343 45.2027 157.638 45.3231 157.962C45.4434 158.285 45.4961 158.63 45.4779 158.974Z" fill="#263238"/>
<path d="M57.3943 158.974C57.3518 159.688 57.0404 160.358 56.5229 160.851C56.0053 161.344 55.3202 161.623 54.6056 161.63C54.2612 161.632 53.9202 161.563 53.6031 161.429C53.2861 161.295 52.9996 161.097 52.7611 160.849C52.5227 160.601 52.3372 160.306 52.216 159.984C52.0947 159.662 52.0402 159.318 52.0558 158.974C52.0983 158.261 52.4098 157.59 52.9273 157.097C53.4448 156.604 54.13 156.326 54.8446 156.318C55.1893 156.315 55.5309 156.383 55.8486 156.517C56.1662 156.651 56.4532 156.848 56.6919 157.097C56.9306 157.345 57.1161 157.64 57.2368 157.963C57.3576 158.286 57.4112 158.63 57.3943 158.974Z" fill="#263238"/>
<path d="M69.3816 158.974C69.3391 159.688 69.0277 160.358 68.5101 160.851C67.9926 161.344 67.3075 161.623 66.5928 161.63C66.2478 161.634 65.9056 161.568 65.5873 161.434C65.2691 161.301 64.9815 161.104 64.7426 160.855C64.5036 160.606 64.3182 160.31 64.1979 159.987C64.0776 159.663 64.0249 159.319 64.0431 158.974C64.0836 158.26 64.3944 157.588 64.9123 157.095C65.4303 156.602 66.1166 156.324 66.8319 156.318C67.1766 156.315 67.5182 156.383 67.8359 156.517C68.1535 156.651 68.4405 156.848 68.6792 157.097C68.9179 157.345 69.1033 157.64 69.2241 157.963C69.3449 158.286 69.3985 158.63 69.3816 158.974Z" fill="#263238"/>
<path d="M67.5697 50.7838C71.2753 47.1601 71.4719 41.3517 68.0089 37.8105C64.5459 34.2692 58.7346 34.336 55.029 37.9597C51.3235 41.5834 51.1268 47.3917 54.5899 50.933C58.0529 54.4743 63.8641 54.4074 67.5697 50.7838Z" fill="#407BFF"/>
<path d="M78.7129 65.2892C76.5071 68.179 73.6685 70.525 70.4149 72.1472C67.1614 73.7694 63.5795 74.6245 59.9441 74.6471C56.4188 74.677 52.9403 73.839 49.8153 72.2071C46.6904 70.5751 44.015 68.1993 42.0251 65.2892C46.3278 61.0042 53.1359 58.2066 60.6789 58.2066C68.2219 58.2066 74.791 61.0042 78.7129 65.2892Z" fill="#407BFF"/>
<path opacity="0.1" d="M67.5697 50.7838C71.2753 47.1601 71.4719 41.3517 68.0089 37.8105C64.5459 34.2692 58.7346 34.336 55.029 37.9597C51.3235 41.5834 51.1268 47.3917 54.5899 50.933C58.0529 54.4743 63.8641 54.4074 67.5697 50.7838Z" fill="white"/>
<path opacity="0.1" d="M78.7129 65.2892C76.5071 68.179 73.6685 70.525 70.4149 72.1472C67.1614 73.7694 63.5795 74.6245 59.9441 74.6471C56.4188 74.677 52.9403 73.839 49.8153 72.2071C46.6904 70.5751 44.015 68.1993 42.0251 65.2892C46.3278 61.0042 53.1359 58.2066 60.6789 58.2066C68.2219 58.2066 74.791 61.0042 78.7129 65.2892Z" fill="white"/>
</svg>
